<?xml version="1.0" encoding="utf-8"?>
<!-- Generator: Adobe Illustrator 19.0.0, SVG Export Plug-In . SVG Version: 6.00 Build 0)  -->
<svg version="1.1" id="Layer_1" xmlns="http://www.w3.org/2000/svg" xmlns:xlink="http://www.w3.org/1999/xlink" x="0px" y="0px"
	 viewBox="0 0 228.4 205.1" style="enable-background:new 0 0 228.4 205.1;" xml:space="preserve">
<style type="text/css">
	.st0{fill:#010101;}
	.st1{fill:#FFFFFF;}
</style>
<g id="XMLID_2_">
	<g id="XMLID_3_">
		<g id="XMLID_4_">
			<path id="XMLID_24_" class="st0" d="M126.4-0.1c0.3,0.2,0.6,0.3,0.9,0.5c3,1.2,4.5,4.4,3.6,7.5s-3.9,5-7,4.5
				c-0.8-0.1-1.3,0-1.8,0.4c-28.5,21.5-57,42.9-85.6,64.4c-0.1,0-0.1,0.1-0.2,0.1c-1.3,1-2.9,1.8-3.7,3.1c-0.8,1.3-0.5,3.2-0.9,4.8
				c-0.5,1.9,0,3.3,1.2,4.7c1.4,1.6,2.5,3.4,3.8,5.1c1.2-1.3,2.2-2.5,3.3-3.7c5.5-5.6,11.8-10.2,18.4-14.3
				C70,69.8,82.3,64,95.6,60.5c1.9-0.5,3.8-0.8,5.7-1.3c0.8-0.2,1.6-0.5,2.3-1c5.3-3.8,10.5-7.7,15.8-11.5c0.6-0.4,1.3-0.8,2-1
				c1.4-0.3,2.6,0.5,3.2,1.8c0.6,1.3,0.2,2.7-1.1,3.6c-2.5,1.9-5.1,3.7-7.7,5.6c-0.5,0.4-1.1,0.8-1.8,1.3c1.9,0.1,3.6,0.2,5.4,0.4
				c2.2,0.2,4.3,0.6,6.5,0.8c0.6,0.1,1.4-0.1,1.9-0.4c9.2-6.8,18.3-13.7,27.4-20.6c0.8-0.6,1.1-1.2,1-2.1c-0.1-3.3,2.2-6.1,5.3-6.5
				c3.2-0.4,6.1,1.6,6.9,4.8c1.1,4.3-2.8,8.4-7.3,7.6c-0.4-0.1-1,0-1.4,0.3c-8.2,6.1-16.4,12.3-24.5,18.4c-0.2,0.2-0.4,0.4-0.5,0.5
				c4.1,1.6,8.3,2.9,12.3,4.6c13.2,5.6,25.5,12.6,36.3,22.1c2.4,2.1,4.6,4.5,6.6,7c1.3,1.7,2,3.9,3.1,5.9c0.3,0.7,0.8,1.3,1.2,1.9
				c1.6,2.2,3.1,4.3,4.8,6.6c1.2-0.9,2.4-1.8,3.6-2.6c0.5-0.3,1.2-0.5,1.8-0.4c1.7,0.2,3.5,0.4,5.2,0.8c0.7,0.1,1.4,0.5,1.8,1.1
				c2.6,3.2,5.1,6.4,7.5,9.6c0.5,0.6,0.9,0.8,1.7,0.8c3.3,0,6,2.5,6.3,5.6c0.2,3.4-2.1,6.4-5.4,6.8c-3.3,0.4-6.4-1.7-7-5
				c-0.2-0.9,0.1-2,0.1-3c0-0.4,0-1-0.3-1.3c-2.1-2.8-4.3-5.6-6.5-8.3c-0.7-0.9-2.7-1.1-3.8-0.6c-2.3,1.1-2.7,3.1-2.9,5.3
				c-0.3,2.3-0.6,4.6-1.1,6.9c-0.1,0.6-0.6,1.3-1.1,1.7c-29.9,22.5-59.8,45-89.7,67.5c-0.8,0.6-1.1,1.2-1,2.2
				c0.1,3.3-2.3,6.1-5.4,6.5c-3.3,0.4-6.1-1.6-6.9-4.8c-1.1-4.3,2.8-8.3,7.2-7.6c0.5,0.1,1.3-0.1,1.7-0.4
				c18.2-13.7,36.4-27.3,54.5-41c11.2-8.5,22.5-16.9,33.7-25.4c0.9-0.7,1.4-1.4,1.5-2.5c0.2-1.7,0.5-3.5,0.7-5.2
				c0.1-0.4,0-0.9-0.2-1.2c-1.6-2.3-3.3-4.6-5-7c-0.3,0.3-0.5,0.6-0.8,0.8c-4.7,5.6-10.3,10.1-16.3,14.2
				c-12.7,8.6-26.2,15.4-41.1,19.4c-2.9,0.8-5.9,1.2-8.8,1.9c-0.6,0.1-1.3,0.4-1.8,0.8c-5,3.6-10,7.2-14.9,10.8
				c-0.6,0.4-1.3,0.8-2,1c-1.4,0.3-2.6-0.5-3.2-1.8c-0.6-1.3-0.2-2.7,1.1-3.6c2.5-1.9,5-3.7,7.6-5.5c0.4-0.3,0.7-0.5,1.2-0.9
				c-1.4-0.1-2.7-0.2-3.9-0.3c-2.6-0.3-5.2-0.8-7.8-1.1c-0.5-0.1-1.2,0.1-1.6,0.4c-9.2,6.9-18.3,13.8-27.5,20.6
				c-0.7,0.6-0.7,1.1-0.7,1.9c0.1,3.3-2.2,6.1-5.3,6.5c-3.3,0.4-6.2-1.6-7-4.9c-1-4.3,2.9-8.3,7.3-7.5c0.4,0.1,1,0,1.4-0.3
				c8.2-6.1,16.4-12.3,24.6-18.5c0.1-0.1,0.2-0.2,0.3-0.4c-1.4-0.5-2.6-0.9-3.9-1.3c-15.3-5.4-29.3-13-41.8-23.4
				c-3.2-2.7-6-5.8-8.9-8.9c-1.6-1.7-2.7-3.9-2.9-6.3c0-0.3-0.2-0.7-0.4-1c-1.7-2.3-3.4-4.6-5.1-7.1c-1.2,0.9-2.4,1.7-3.5,2.5
				c-0.6,0.5-1.3,0.7-2.1,0.5c-1.7-0.4-3.4-0.5-5.1-0.9c-0.7-0.1-1.4-0.5-1.8-1c-2.6-3.2-5.1-6.5-7.7-9.8C7.3,84.3,6.9,84,6.5,84
				c-3.4-0.2-5.2-1.4-6.4-4.6c0-0.1-0.1-0.2-0.2-0.3c0-1,0-1.9,0-2.9C0,76,0.1,75.9,0.2,75.7c1.3-3.4,4.5-5,7.8-4.1
				c3.3,1,5,4.2,4.2,7.8c-0.1,0.4,0.1,0.9,0.3,1.3c2,2.7,4.1,5.3,6.2,8c1.1,1.4,2.9,1.7,4.4,0.6c0.5-0.4,1.1-0.7,1.5-1.1
				c0.3-0.2,0.5-0.6,0.6-1c0.5-3.2,1-6.4,1.5-9.6c0.1-0.8,0.4-1.4,1.1-1.9c30-22.6,60-45.2,90-67.7c0.6-0.5,0.8-0.9,0.8-1.7
				c-0.2-2.4,0.7-4.3,2.7-5.7c0.6-0.4,1.4-0.7,2.1-1.1C124.5-0.1,125.4-0.1,126.4-0.1z M76.3,101.5c0,20.1,16,36.6,36,37.2
				c21,0.6,37.6-15.9,38.3-35.8c0.7-20.5-15.5-38.4-37-38.5C92.9,64.2,76.4,81,76.3,101.5z M144.7,131.7c0.2-0.1,0.4-0.1,0.6-0.2
				c11.1-4.8,21.6-10.7,31.1-18.3c3-2.4,5.9-5.1,8.4-8c2.9-3.4,2.8-3.5,0-7.1c-1.7-2.1-3.7-4.1-5.8-5.9c-9.6-8.3-20.5-14.6-32-19.7
				c-0.7-0.3-1.4-0.6-2.4-1C160.5,88.1,160.9,114.7,144.7,131.7z M82.2,71.6c-0.5,0.2-0.8,0.2-1,0.3c-10.9,4.7-21.2,10.5-30.4,18
				c-3.1,2.5-6.1,5.4-8.7,8.4c-2.6,3.1-2.5,3.2,0,6.5c1.8,2.2,3.8,4.3,6,6.2c9.6,8.3,20.5,14.6,32.1,19.8c0.7,0.3,1.4,0.6,2.4,1
				c-7.9-8.7-12.1-18.5-12.2-30.1C70.3,90.1,74.4,80.4,82.2,71.6z M128.1,6.2c0-1.8-1.3-3.2-3.1-3.2s-3.2,1.3-3.2,3.1
				c0,1.9,1.3,3.2,3.1,3.2C126.7,9.4,128.1,8,128.1,6.2z M162.7,32.8c-1.8,0-3.2,1.3-3.2,3.1c0,1.8,1.3,3.2,3.1,3.2
				c1.8,0,3.2-1.3,3.2-3.1C165.8,34.1,164.5,32.8,162.7,32.8z M9.6,77.9c0-1.8-1.3-3.2-3.1-3.2c-1.8,0-3.2,1.3-3.2,3.1
				c0,1.9,1.3,3.2,3.2,3.2C8.2,81.1,9.6,79.8,9.6,77.9z M224.1,125c0-1.8-1.3-3.2-3.1-3.2c-1.8,0-3.2,1.3-3.2,3.1
				c0,1.9,1.3,3.3,3.2,3.2C222.8,128.1,224.1,126.8,224.1,125z M63.7,163.6c-1.8,0-3.2,1.4-3.2,3.2s1.4,3.2,3.2,3.2s3.2-1.3,3.2-3.2
				S65.6,163.6,63.7,163.6z M105.5,196.8c0-1.9-1.3-3.2-3.1-3.3c-1.8,0-3.2,1.3-3.3,3.1c0,1.8,1.3,3.2,3.1,3.3
				C104.1,200,105.5,198.7,105.5,196.8z"/>
			<path id="XMLID_17_" class="st1" d="M128.1,6.2c0,1.8-1.4,3.2-3.2,3.1c-1.8,0-3.1-1.4-3.1-3.2c0-1.8,1.4-3.2,3.2-3.1
				C126.8,3,128.1,4.4,128.1,6.2z"/>
			<path id="XMLID_16_" class="st1" d="M162.7,32.8c1.8,0,3.2,1.4,3.1,3.2c0,1.8-1.4,3.2-3.2,3.1c-1.8,0-3.1-1.4-3.1-3.2
				S160.8,32.7,162.7,32.8z"/>
			<path id="XMLID_15_" class="st1" d="M9.6,77.9c0,1.8-1.3,3.2-3.2,3.2c-1.9,0-3.2-1.4-3.2-3.2s1.4-3.1,3.2-3.1
				C8.2,74.8,9.6,76.1,9.6,77.9z"/>
			<path id="XMLID_14_" class="st1" d="M224.1,125c0,1.8-1.3,3.2-3.2,3.2c-1.9,0-3.2-1.4-3.2-3.2s1.4-3.1,3.2-3.1
				C222.8,121.8,224.1,123.2,224.1,125z"/>
			<path id="XMLID_13_" class="st1" d="M63.7,163.6c1.8,0,3.2,1.3,3.2,3.2c0,1.8-1.3,3.2-3.2,3.2c-1.8,0-3.2-1.4-3.2-3.2
				C60.6,164.9,61.9,163.6,63.7,163.6z"/>
			<path id="XMLID_12_" class="st1" d="M105.5,196.8c0,1.8-1.4,3.1-3.3,3.1c-1.8,0-3.1-1.4-3.1-3.3c0-1.8,1.4-3.1,3.3-3.1
				C104.3,193.6,105.6,195,105.5,196.8z"/>
			<path id="XMLID_9_" class="st0" d="M113.8,77.7c1.9,0,3.8,0,5.8,0c0.8,0,1.2,0.3,1.6,0.9c0.8,1.3,1.7,2.6,2.6,3.9
				c0.3,0.4,0.9,0.7,1.3,0.8c1.5,0.2,3.1,0.1,4.7,0.4c0.6,0.1,1.3,0.5,1.6,0.9c2,3.4,4,6.7,5.9,10.2c0.2,0.4,0.2,1.2,0,1.6
				c-0.6,1.4-1.3,2.7-2,4c-0.4,0.8-0.5,1.4,0,2.2c0.7,1.3,1.4,2.6,2,4c0.2,0.5,0.2,1.2,0,1.6c-1.9,3.5-3.9,6.9-5.9,10.3
				c-0.3,0.4-0.9,0.8-1.4,0.8c-1.6,0.2-3.3,0.2-4.9,0.4c-0.4,0-1,0.4-1.2,0.7c-0.9,1.3-1.7,2.6-2.6,3.9c-0.4,0.5-1,0.9-1.6,0.9
				c-3.9,0.1-7.8,0.1-11.8,0c-0.5,0-1.1-0.4-1.3-0.8c-1-1.3-1.8-2.7-2.8-4.1c-0.3-0.4-0.8-0.7-1.2-0.7c-1.6-0.2-3.3-0.2-4.9-0.4
				c-0.5-0.1-1.2-0.5-1.5-0.9c-2-3.3-4-6.7-5.8-10c-0.3-0.5-0.2-1.3,0-1.8c0.6-1.4,1.4-2.8,2-4.2c0.2-0.5,0.2-1.2,0-1.8
				c-0.6-1.4-1.4-2.7-2-4.1c-0.2-0.6-0.2-1.4,0-2c1.8-3.3,3.8-6.5,5.6-9.8c0.4-0.8,1-1.2,1.9-1.2c1.5,0,3-0.1,4.5-0.3
				c0.5-0.1,1.1-0.4,1.4-0.8c0.9-1.2,1.7-2.4,2.5-3.7c0.5-0.8,1-1.1,2-1C110,77.8,111.9,77.7,113.8,77.7L113.8,77.7z M113.7,123.3
				c0.6,0,1.2,0,1.8,0c1.4,0,3,0.4,4.1-0.2c1.1-0.6,1.7-2.3,2.5-3.4c0.4-0.6,0.5-1.1,0.1-1.7c-1.5-2.5-3-5-4.5-7.5
				c-0.4-0.6-0.6-1.2,0.1-1.7c0.8-0.5,1.3,0,1.6,0.7c0.8,1.5,1.6,3,2.5,4.5c2.2,4.1,2.2,4.1,6.8,3.6c0.5-0.1,1.1-0.5,1.3-0.9
				c1.3-2,2.3-4.3,3.7-6.2c1.7-2.3,1.8-4.4,0.2-6.8c-0.6-0.9-1.1-1.4-2.3-1.4c-2.8,0.1-5.5,0.1-8.3,0.1c-0.7,0-1.3-0.2-1.3-1
				s0.6-1,1.3-1c0.2,0,0.5,0,0.7,0c2.7,0,5.4,0.1,8.2,0.1c0.4,0,1-0.4,1.3-0.7c0.6-1.1,1.2-2.2,1.7-3.3c0.2-0.4,0.2-1,0-1.4
				c-1.7-3-3.4-6-5.2-9c-0.2-0.3-0.7-0.7-1.1-0.7c-1.2-0.2-2.5-0.1-3.7-0.3c-0.7-0.1-1.1,0.1-1.4,0.7c-1.4,2.5-2.8,5-4.2,7.5
				c-0.4,0.7-0.8,1.4-1.7,0.8c-0.9-0.5-0.5-1.2-0.1-1.9c1.1-1.8,2.1-3.8,3.4-5.5c1.4-1.9,1.5-3.5-0.2-5.2c-0.3-0.3-0.5-0.9-0.8-1.2
				c-0.4-0.3-0.9-0.7-1.4-0.8c-2.3-0.1-4.6,0-6.8,0c-4.4,0-4.4,0-6.7,3.7c-0.4,0.6-0.4,1,0,1.6c0.7,1.2,1.4,2.4,2.1,3.6
				c0.7,1.2,1.5,2.5,2.2,3.7c0.4,0.7,0.9,1.4-0.1,1.9s-1.3-0.3-1.7-1c-0.2-0.3-0.4-0.7-0.6-1.1c-1.2-2.1-2.4-4.3-3.6-6.3
				c-0.2-0.4-0.8-0.7-1.3-0.7c-1.1-0.1-2.2,0.1-3.2,0.1c-0.9,0-1.5,0.4-2,1.2c-1,1.9-1.9,3.8-3.2,5.5c-2.1,2.7-2.1,5.1-0.2,7.8
				c0.4,0.6,0.8,0.9,1.5,0.8c2.8-0.1,5.7-0.1,8.5-0.1c0.8,0,1.5,0,1.5,1s-0.8,1-1.6,1c-2.8,0-5.6,0-8.4-0.1c-0.8,0-1.3,0.2-1.7,1
				c-0.4,1-0.9,2-1.4,2.9c-0.4,0.7-0.4,1.2,0,1.9c1.2,2,2.6,3.9,3.4,6c1.2,3,3.2,4,6.3,3.7c0.8-0.1,1.4-0.2,1.8-1
				c1.2-2.2,2.4-4.3,3.6-6.5c0.2-0.3,0.3-0.6,0.4-0.8c0.4-0.7,0.8-1.3,1.7-0.8c0.8,0.5,0.5,1.1,0.1,1.8c-1.5,2.5-2.9,5-4.4,7.4
				c-0.4,0.6-0.4,1.1,0,1.7c0.6,0.9,1.3,1.8,1.8,2.7c0.4,0.7,0.9,1,1.7,1C110.4,123.3,112.1,123.3,113.7,123.3z"/>
			<path id="XMLID_6_" class="st1" d="M113.7,123.3c-1.6,0-3.3,0-4.9,0c-0.8,0-1.3-0.2-1.7-1c-0.5-0.9-1.1-1.8-1.8-2.7
				c-0.5-0.6-0.4-1.1,0-1.7c1.5-2.5,2.9-4.9,4.4-7.4c0.4-0.6,0.7-1.3-0.1-1.8c-0.9-0.5-1.3,0.1-1.7,0.8c-0.1,0.3-0.3,0.6-0.4,0.8
				c-1.2,2.2-2.5,4.3-3.6,6.5c-0.4,0.8-1,0.9-1.8,1c-3,0.3-5.1-0.7-6.3-3.7c-0.9-2.1-2.2-4.1-3.4-6c-0.4-0.7-0.4-1.2,0-1.9
				c0.5-0.9,1-1.9,1.4-2.9c0.3-0.8,0.8-1,1.7-1c2.8,0.1,5.6,0.1,8.4,0.1c0.8,0,1.6,0,1.6-1s-0.8-1-1.5-1c-2.8,0-5.7,0.1-8.5,0.1
				c-0.7,0-1.1-0.2-1.5-0.8c-1.9-2.7-2-5.2,0.2-7.8c1.3-1.6,2.2-3.6,3.2-5.5c0.5-0.9,1-1.2,2-1.2c1.1,0,2.2-0.2,3.2-0.1
				c0.5,0,1.1,0.3,1.3,0.7c1.3,2.1,2.4,4.2,3.6,6.3c0.2,0.3,0.4,0.7,0.6,1.1c0.4,0.7,0.7,1.5,1.7,1s0.5-1.3,0.1-1.9
				c-0.8-1.2-1.5-2.4-2.2-3.7c-0.7-1.2-1.4-2.4-2.1-3.6c-0.4-0.6-0.4-1,0-1.6c2.4-3.7,2.4-3.7,6.7-3.7c2.3,0,4.6,0,6.8,0
				c0.5,0,1,0.4,1.4,0.8c0.4,0.3,0.5,0.8,0.8,1.2c1.7,1.7,1.6,3.3,0.2,5.2c-1.3,1.7-2.3,3.7-3.4,5.5c-0.4,0.6-0.8,1.3,0.1,1.9
				c0.9,0.5,1.3-0.2,1.7-0.8c1.4-2.5,2.8-5,4.2-7.5c0.3-0.6,0.7-0.8,1.4-0.7c1.2,0.1,2.5,0.1,3.7,0.3c0.4,0.1,0.9,0.4,1.1,0.7
				c1.8,3,3.5,6,5.2,9c0.2,0.4,0.2,1,0,1.4c-0.5,1.1-1,2.3-1.7,3.3c-0.2,0.4-0.8,0.7-1.3,0.7c-2.7,0-5.4,0-8.2-0.1
				c-0.2,0-0.5,0-0.7,0c-0.7,0-1.3,0.2-1.3,1c0,0.9,0.6,1,1.3,1c2.8,0,5.5,0,8.3-0.1c1.2-0.1,1.7,0.5,2.3,1.4
				c1.6,2.4,1.5,4.5-0.2,6.8c-1.4,1.9-2.4,4.1-3.7,6.2c-0.3,0.4-0.9,0.8-1.3,0.9c-4.6,0.5-4.6,0.5-6.8-3.6c-0.8-1.5-1.7-3-2.5-4.5
				c-0.4-0.7-0.8-1.1-1.6-0.7c-0.7,0.5-0.5,1.1-0.1,1.7c1.5,2.5,3,5,4.5,7.5c0.4,0.6,0.4,1.1-0.1,1.7c-0.9,1.2-1.4,2.8-2.5,3.4
				c-1.1,0.6-2.7,0.2-4.1,0.2C114.9,123.3,114.3,123.3,113.7,123.3z M112.8,99.8c-0.5-0.3-0.9-0.5-1.2-0.7c-2.9-1.7-5.8-3.4-8.7-5
				c-0.7-0.4-1.2-0.7-1.2-1.7c-0.1-1.4-1.6-2.4-3-2.1c-1.6,0.3-2.5,1.8-2.2,3.3c0.3,1.4,1.8,2.5,3,1.9c1.3-0.6,2.1-0.1,3,0.5
				c2.1,1.2,4.2,2.4,6.3,3.7c1,0.5,1.9,1.1,3,1.7c-0.4,0.2-0.6,0.4-0.8,0.5c-3.1,1.8-6.2,3.6-9.4,5.4c-0.6,0.4-1.1,0.4-1.8,0.1
				c-1.4-0.6-3,0.2-3.4,1.7c-0.5,1.6,0.5,3.1,2.1,3.5c1.5,0.3,2.9-0.7,3.1-2.3c0.1-0.7,0.4-1,0.9-1.4c3.1-1.8,6.2-3.6,9.2-5.3
				c0.3-0.2,0.6-0.3,0.9-0.4c0,0.2,0.1,0.4,0.1,0.5c0,3.8,0,7.7,0,11.5c0,0.4-0.4,0.8-0.7,1.1c-1.2,1.1-1.4,2.8-0.3,3.9
				c1.1,1.1,2.9,1.1,4,0c1.1-1.2,0.9-2.9-0.3-3.9c-0.4-0.3-0.7-0.9-0.7-1.4c-0.1-3.6,0-7.1,0-10.7c0-0.3,0.1-0.7,0.1-1.1
				c3.5,2,6.8,3.9,10.1,5.8c0.6,0.3,0.9,0.7,1,1.4c0.2,1.7,1.7,2.6,3.2,2.2c1.5-0.4,2.4-2,1.9-3.5s-2-2.1-3.6-1.6
				c-0.4,0.1-1.1,0.1-1.5-0.1c-3.2-1.8-6.3-3.6-9.5-5.4c-0.2-0.1-0.4-0.3-0.7-0.6c3.6-2.1,7.2-4.1,10.7-6.1c0.2-0.1,0.7,0,1,0.1
				c1.6,0.6,3.1,0,3.6-1.5s-0.4-3.1-2-3.5c-1.5-0.4-2.9,0.6-3.2,2.3c-0.1,0.5-0.4,1-0.8,1.3c-3.1,1.9-6.2,3.6-9.3,5.4
				c-0.3,0.2-0.6,0.3-1,0.5c0-4.2,0-8.2,0-12.2c0-0.3,0.3-0.7,0.6-0.9c1.4-1.1,1.6-2.8,0.5-4s-3-1.2-4.1,0s-0.9,2.9,0.5,4
				c0.3,0.2,0.6,0.6,0.6,0.9C112.8,91.6,112.8,95.6,112.8,99.8z"/>
			<path id="XMLID_5_" class="st0" d="M112.8,99.8c0-4.2,0-8.2,0-12.2c0-0.3-0.3-0.7-0.6-0.9c-1.3-1.1-1.6-2.8-0.5-4s3-1.2,4.1,0
				s0.8,2.9-0.5,4c-0.3,0.2-0.6,0.6-0.6,0.9c0,4,0,8,0,12.2c0.4-0.2,0.7-0.3,1-0.5c3.1-1.8,6.2-3.6,9.3-5.4c0.4-0.2,0.7-0.8,0.8-1.3
				c0.4-1.7,1.7-2.6,3.2-2.3c1.6,0.4,2.5,2,2,3.5s-2,2.1-3.6,1.5c-0.3-0.1-0.7-0.3-1-0.1c-3.5,2-7.1,4-10.7,6.1
				c0.3,0.3,0.5,0.4,0.7,0.6c3.2,1.8,6.3,3.6,9.5,5.4c0.4,0.2,1.1,0.3,1.5,0.1c1.6-0.5,3.1,0.1,3.6,1.6s-0.4,3.1-1.9,3.5
				c-1.6,0.4-3-0.5-3.2-2.2c-0.1-0.8-0.4-1.1-1-1.4c-3.3-1.9-6.6-3.8-10.1-5.8c0,0.5-0.1,0.8-0.1,1.1c0,3.6,0,7.1,0,10.7
				c0,0.5,0.3,1.1,0.7,1.4c1.2,1.1,1.4,2.8,0.3,3.9c-1.1,1.1-2.9,1.1-4,0s-0.9-2.8,0.3-3.9c0.3-0.3,0.7-0.7,0.7-1.1
				c0.1-3.8,0-7.7,0-11.5c0-0.1-0.1-0.3-0.1-0.5c-0.3,0.2-0.6,0.3-0.9,0.4c-3.1,1.8-6.2,3.6-9.2,5.3c-0.5,0.3-0.9,0.6-0.9,1.4
				c-0.1,1.6-1.6,2.6-3.1,2.3c-1.6-0.3-2.6-1.9-2.1-3.5c0.4-1.5,2-2.3,3.4-1.7c0.7,0.3,1.2,0.2,1.8-0.1c3.1-1.8,6.2-3.6,9.4-5.4
				c0.2-0.1,0.4-0.3,0.8-0.5c-1.1-0.6-2-1.2-3-1.7c-2.1-1.2-4.2-2.4-6.3-3.7c-1-0.6-1.8-1.1-3-0.5c-1.3,0.6-2.8-0.6-3-1.9
				c-0.3-1.6,0.7-3,2.2-3.3c1.4-0.3,2.9,0.7,3,2.1c0.1,1,0.6,1.3,1.2,1.7c2.9,1.7,5.8,3.4,8.7,5C111.9,99.3,112.2,99.5,112.8,99.8z"
				/>
		</g>
	</g>
</g>
</svg>
